<svg width="68" height="16" viewBox="0 0 68 16" fill="none" xmlns="http://www.w3.org/2000/svg">
<g clip-path="url(#clip0)">
<path d="M33.3186 9.49267L33.7705 3.19995H35.2318L34.81 9.49267H33.3186Z" fill="#479BBD"/>
<path d="M26.539 3.44456H30.8021C30.8021 3.44456 30.7268 4.83445 30.5159 5.50649H31.3595L31.5403 3.21545H33.0015L32.5044 9.03469H31.013L31.1938 6.80475L29.9736 6.78947C29.9736 6.78947 29.2355 8.80559 26.554 9.70673L25.605 8.83613C25.605 8.83613 27.4127 8.33211 28.2111 7.04912H26.2979V5.79669H28.8589C28.9492 5.43012 28.9944 5.04828 28.9944 4.68172H26.4787L26.539 3.44456Z" fill="#479BBD"/>
<path d="M17.6872 3.42908H24.9632L24.6318 7.38494H19.058V8.66792H24.7523V10.0425H21.7847V11.4783H25.3248V12.7612H16V11.4783H20.1427V10.012H17.2503L17.5516 6.01031H23.1555V4.74261H17.6119L17.6872 3.42908Z" fill="#479BBD"/>
<path d="M30.3052 9.49255C30.3052 9.49255 30.5462 12.3182 26.4487 12.868L27.1718 13.8913C27.1718 13.8913 29.8683 13.2804 30.8174 12.0432C31.7363 13.0513 32.9565 13.7386 34.2821 14.0135L35.2462 12.8986C35.2462 12.8986 32.1882 12.3793 31.8869 10.6992L31.917 9.49255H30.3052Z" fill="#479BBD"/>
<path d="M40.5893 13.5707L41.5233 3.19995H42.9996L42.7887 6.45323H43.6926L43.9336 3.19995H45.4099L44.5061 13.754H43.09L43.3913 7.82785L42.5778 7.8584L42.1711 13.5707H40.5893Z" fill="#479BBD"/>
<path fill-rule="evenodd" clip-rule="evenodd" d="M38.962 6.16302L39.0976 3.42905V3.44433H40.589L39.9412 11.2491H35.8889L36.4614 3.42905H37.9678L37.8171 6.16302H38.962ZM37.4104 10.0272H38.5252L38.721 7.43073H37.5761L37.4104 10.0272Z" fill="#479BBD"/>
<path d="M50.4051 3.21523C50.4051 3.21523 50.7064 5.99502 46.3227 6.45323L47.1813 7.52238C47.1813 7.52238 50.0586 6.88089 51.0528 5.46044C51.0528 5.46044 52.6497 7.24745 54.2917 7.5682L55.4064 6.59069C55.4064 6.59069 51.6404 6.34631 51.9868 3.19995L50.4051 3.21523Z" fill="#479BBD"/>
<path d="M50.1642 7.01831V7.99582L45.8859 7.96527V9.32462H55.5723V7.99582H51.6405V7.01831H50.1642Z" fill="#479BBD"/>
<path fill-rule="evenodd" clip-rule="evenodd" d="M50.616 9.67603C48.5221 9.67603 46.8349 10.6994 46.8349 11.9671C46.8349 13.2348 48.5221 14.2581 50.616 14.2581C52.7099 14.2581 54.3971 13.2348 54.3971 11.9671C54.3971 10.6994 52.7099 9.67603 50.616 9.67603ZM50.5708 13.1431C49.3506 13.1431 48.3714 12.6086 48.3714 11.9671C48.3714 11.3256 49.3506 10.791 50.5708 10.791C51.791 10.791 52.7702 11.3256 52.7702 11.9671C52.7702 12.6086 51.776 13.1431 50.5708 13.1431Z" fill="#479BBD"/>
<path d="M5.24928 10.2894C5.02517 10.1029 4.7657 9.96308 4.48631 9.87832C4.08587 9.77833 3.05967 11.0616 2.64696 11.0372C2.23425 11.0127 3.52258 8.61949 4.3112 8.13395C5.09981 7.64841 7.20129 8.00062 7.20129 8.00062L5.24928 10.2894Z" fill="#479CBA"/>
<path d="M7.16432 11.7194C7.34934 11.9446 7.48703 12.2045 7.56923 12.4838C7.66516 12.8838 6.36456 13.8915 6.38575 14.3026C6.40695 14.7137 8.82187 13.4571 9.31935 12.6771C9.81683 11.8971 9.48443 9.80054 9.48443 9.80054L7.16432 11.7194Z" fill="#479CBA"/>
<path d="M4.34253 11.2349C4.34253 11.2349 7.06196 3.79076 15.5348 1.63196C15.5348 1.63196 14.1963 8.97611 5.99336 12.8471L4.34253 11.2349Z" fill="#65CDE3"/>
<path d="M10.7629 7.51724C11.4091 7.51724 11.933 6.99542 11.933 6.35173C11.933 5.70803 11.4091 5.18622 10.7629 5.18622C10.1166 5.18622 9.59277 5.70803 9.59277 6.35173C9.59277 6.99542 10.1166 7.51724 10.7629 7.51724Z" fill="white"/>
<path d="M3.90869 12.2015C3.90869 12.2015 3.23273 13.2859 3.48928 13.5848C3.74583 13.8836 4.88469 13.1548 4.88469 13.1548C4.88469 13.1548 4.90365 14.7558 1.63208 15.5347C1.63208 15.5358 1.8574 12.6881 3.90869 12.2015Z" fill="#FF9B05"/>
<path d="M4.03338 13.0615C3.69875 12.7381 7.25923 9.12384 7.6764 9.4816C8.09357 9.83937 4.32786 13.3481 4.03338 13.0615Z" fill="#479CBA"/>
</g>
<defs>
<clipPath id="clip0">
<rect width="68" height="16" fill="white"/>
</clipPath>
</defs>
</svg>
