<svg width="68" height="16" viewBox="0 0 68 16" fill="none" xmlns="http://www.w3.org/2000/svg">
<g clip-path="url(#clip0)">
<path d="M5.24994 10.2881C5.02558 10.1017 4.76591 9.96206 4.48635 9.87752C4.0809 9.77792 3.06052 11.0607 2.64697 11.0364C2.23341 11.0122 3.52273 8.61364 4.31064 8.13312C5.09856 7.6526 7.20013 7.99852 7.20013 7.99852L5.24994 10.2881Z" fill="#088D32"/>
<path d="M7.16493 11.7229C7.35014 11.9481 7.48802 12.2081 7.57037 12.4874C7.66633 12.8912 6.36619 13.8939 6.38647 14.3058C6.40674 14.7177 8.81916 13.4605 9.31921 12.6812C9.81926 11.9019 9.48409 9.80481 9.48409 9.80481L7.16493 11.7229Z" fill="#088D32"/>
<path d="M4.34155 11.2343C4.34155 11.2343 7.06076 3.79228 15.5346 1.63196C15.5346 1.63196 14.2007 8.97436 5.99309 12.8454L4.34155 11.2343Z" fill="#43A921"/>
<path d="M10.7627 7.51803C11.4091 7.51803 11.9331 6.99616 11.9331 6.3524C11.9331 5.70864 11.4091 5.18677 10.7627 5.18677C10.1163 5.18677 9.59229 5.70864 9.59229 6.3524C9.59229 6.99616 10.1163 7.51803 10.7627 7.51803Z" fill="white"/>
<path d="M3.90934 12.2007C3.90934 12.2007 3.2336 13.2842 3.49038 13.5844C3.74716 13.8845 4.88511 13.155 4.88511 13.155C4.88511 13.155 4.90404 14.7554 1.63208 15.5347C1.63208 15.5334 1.86318 12.6866 3.90934 12.2007Z" fill="#FF9B05"/>
<path d="M4.03344 13.0608C3.70233 12.7378 7.25945 9.12379 7.68247 9.48182C8.10549 9.83986 4.32807 13.3475 4.03344 13.0608Z" fill="#088D32"/>
<path d="M52.1942 3L52.1196 6.0746H51.0151V7.38802H51.9106L51.6121 13.4029H52.8658L53.4927 3H52.1942Z" fill="#099125"/>
<path d="M26.6419 3.22388H30.9403C30.9403 3.22388 30.6717 5.04476 30.5374 5.44774H31.806L31.9851 3.02985H33.3433L32.8359 8.92532H31.403L31.6418 6.58206L29.9851 6.64176C29.9851 6.64176 29.7165 8.35816 26.6269 9.58203L25.5374 8.68651C25.5374 8.68651 28.1344 8.04473 28.6568 6.70146H26.224L26.2389 5.56714H29.1045C29.1045 5.56714 29.3829 5.46458 29.4316 4.40297H26.4777L26.6419 3.22388Z" fill="#099125"/>
<path d="M16.8209 3.22398H24.3134L24.0596 7.2538H18.1343L18.0298 8.49259H24.1641L24.1044 9.91049H21.1044V11.2985H24.9551V12.8209H15V11.2985H19.2388V9.97019H16.2985L16.597 5.91052H22.4477L22.5372 4.5971H16.7612L16.8209 3.22398Z" fill="#099125"/>
<path d="M35.388 3.02985H34.0298L33.4477 9.97009H34.8955L35.388 3.02985Z" fill="#099125"/>
<path d="M30.4626 9.46273C30.4626 9.46273 31.2089 12.194 26.4925 12.8955L27.3582 14C27.3582 14 30.388 13.1791 31.0596 11.8657C31.0596 11.8657 32.4775 13.6567 34.5223 13.9254L35.5969 12.8209C35.5969 12.8209 31.5671 12.612 32.0596 9.4478L30.4626 9.46273Z" fill="#099125"/>
<path fill-rule="evenodd" clip-rule="evenodd" d="M45.1944 3.22398V4.56725H43.881L43.7467 8.25379H44.9407V9.58214H37.0154V8.20901H38.4034L38.6124 4.4777H37.3736L37.493 3.22398H45.1944ZM40.0154 8.22394H42.1646L42.2989 4.50755H40.1348L40.0154 8.22394Z" fill="#099125"/>
<path d="M45.3729 11.3282H36.1491V12.7013H45.3729V11.3282Z" fill="#099125"/>
<path d="M50.597 3.22398H46.9702L46.9105 4.5374H49.0299L48.8955 6.40306H46.7164L46.5224 11.1642C49.2687 11.403 50.7463 10.9254 50.7463 10.9254V9.80601C50.4627 10.0299 48.0448 9.97019 48.0448 9.97019L48.0896 7.64185H50.3582L50.597 3.22398Z" fill="#099125"/>
<path d="M53.8208 13.791L54.4178 3H55.8357L55.1789 13.791H53.8208Z" fill="#099125"/>
<path d="M64.1049 3L63.3885 13.791H64.881L65.5079 3H64.1049Z" fill="#099125"/>
<path d="M59.0299 7.46275C59.3881 6.58216 59.418 3.22398 59.418 3.22398L60.8956 3.23891C60.8956 3.23891 60.6866 5.17919 60.6568 7.23887C60.6269 9.29855 63 10.2836 63 10.2836L61.9403 11.2388C61.1941 10.8956 59.7314 9.04483 59.7314 9.04483C59.7314 9.04483 60.1195 8.20901 59.7314 8.92542C59.3433 9.64184 56.9105 11.2239 56.9105 11.2239C56.9105 11.2239 55.8658 10.2687 56.2538 10.2687C56.6419 10.2687 58.6717 8.34334 59.0299 7.46275Z" fill="#099125"/>
</g>
<defs>
<clipPath id="clip0">
<rect width="68" height="16" fill="white"/>
</clipPath>
</defs>
</svg>
